<mxfile host="app.diagrams.net" modified="2023-09-23T16:31:23.381Z" agent="Mozilla/5.0 (Windows NT 10.0; Win64; x64) AppleWebKit/537.36 (KHTML, like Gecko) Chrome/116.0.0.0 Safari/537.36" etag="RfXC3sXEXPEKPTzE2pth" version="21.8.1" type="device">
  <diagram name="Page-1" id="WYL-nPVXkx8Af5mXw2h5">
    <mxGraphModel dx="794" dy="456" grid="1" gridSize="10" guides="1" tooltips="1" connect="1" arrows="1" fold="1" page="1" pageScale="1" pageWidth="827" pageHeight="1169" math="0" shadow="0">
      <root>
        <mxCell id="0" />
        <mxCell id="1" parent="0" />
        <mxCell id="-GDkolLcmKoP9i0T9sj2-1" value="User" style="rounded=0;whiteSpace=wrap;html=1;" parent="1" vertex="1">
          <mxGeometry x="150" y="270" width="120" height="60" as="geometry" />
        </mxCell>
        <mxCell id="-GDkolLcmKoP9i0T9sj2-2" value="User login" style="ellipse;whiteSpace=wrap;html=1;aspect=fixed;" parent="1" vertex="1">
          <mxGeometry x="165" y="400" width="90" height="90" as="geometry" />
        </mxCell>
        <mxCell id="-GDkolLcmKoP9i0T9sj2-3" value="Check roles" style="ellipse;whiteSpace=wrap;html=1;aspect=fixed;" parent="1" vertex="1">
          <mxGeometry x="165" y="550" width="90" height="90" as="geometry" />
        </mxCell>
        <mxCell id="-GDkolLcmKoP9i0T9sj2-4" value="User module" style="ellipse;whiteSpace=wrap;html=1;aspect=fixed;" parent="1" vertex="1">
          <mxGeometry x="340" y="385" width="90" height="90" as="geometry" />
        </mxCell>
        <mxCell id="-GDkolLcmKoP9i0T9sj2-6" value="Change password" style="rounded=0;whiteSpace=wrap;html=1;" parent="1" vertex="1">
          <mxGeometry x="560" y="585" width="120" height="60" as="geometry" />
        </mxCell>
        <mxCell id="-GDkolLcmKoP9i0T9sj2-7" value="Make payments" style="rounded=0;whiteSpace=wrap;html=1;" parent="1" vertex="1">
          <mxGeometry x="560" y="500" width="120" height="60" as="geometry" />
        </mxCell>
        <mxCell id="-GDkolLcmKoP9i0T9sj2-8" value="Search/view/book&lt;br&gt;rooms" style="rounded=0;whiteSpace=wrap;html=1;" parent="1" vertex="1">
          <mxGeometry x="560" y="410" width="120" height="60" as="geometry" />
        </mxCell>
        <mxCell id="-GDkolLcmKoP9i0T9sj2-9" value="manage &quot;My profile&quot;" style="rounded=0;whiteSpace=wrap;html=1;" parent="1" vertex="1">
          <mxGeometry x="560" y="325" width="120" height="60" as="geometry" />
        </mxCell>
        <mxCell id="-GDkolLcmKoP9i0T9sj2-10" value="Login/Logout" style="rounded=0;whiteSpace=wrap;html=1;" parent="1" vertex="1">
          <mxGeometry x="560" y="240" width="120" height="60" as="geometry" />
        </mxCell>
        <mxCell id="-GDkolLcmKoP9i0T9sj2-11" value="" style="endArrow=classic;html=1;rounded=0;entryX=0.5;entryY=0;entryDx=0;entryDy=0;exitX=0.5;exitY=1;exitDx=0;exitDy=0;" parent="1" source="-GDkolLcmKoP9i0T9sj2-1" target="-GDkolLcmKoP9i0T9sj2-2" edge="1">
          <mxGeometry width="50" height="50" relative="1" as="geometry">
            <mxPoint x="380" y="500" as="sourcePoint" />
            <mxPoint x="430" y="450" as="targetPoint" />
          </mxGeometry>
        </mxCell>
        <mxCell id="-GDkolLcmKoP9i0T9sj2-12" value="" style="endArrow=classic;html=1;rounded=0;exitX=0.5;exitY=1;exitDx=0;exitDy=0;entryX=0.5;entryY=0;entryDx=0;entryDy=0;" parent="1" source="-GDkolLcmKoP9i0T9sj2-2" target="-GDkolLcmKoP9i0T9sj2-3" edge="1">
          <mxGeometry width="50" height="50" relative="1" as="geometry">
            <mxPoint x="380" y="500" as="sourcePoint" />
            <mxPoint x="430" y="450" as="targetPoint" />
          </mxGeometry>
        </mxCell>
        <mxCell id="-GDkolLcmKoP9i0T9sj2-13" value="" style="endArrow=classic;html=1;rounded=0;entryX=0;entryY=1;entryDx=0;entryDy=0;exitX=1;exitY=0;exitDx=0;exitDy=0;" parent="1" source="-GDkolLcmKoP9i0T9sj2-3" target="-GDkolLcmKoP9i0T9sj2-4" edge="1">
          <mxGeometry width="50" height="50" relative="1" as="geometry">
            <mxPoint x="380" y="500" as="sourcePoint" />
            <mxPoint x="430" y="450" as="targetPoint" />
          </mxGeometry>
        </mxCell>
        <mxCell id="-GDkolLcmKoP9i0T9sj2-14" value="" style="endArrow=classic;html=1;rounded=0;entryX=0;entryY=0.5;entryDx=0;entryDy=0;exitX=1;exitY=0;exitDx=0;exitDy=0;" parent="1" source="-GDkolLcmKoP9i0T9sj2-4" target="-GDkolLcmKoP9i0T9sj2-10" edge="1">
          <mxGeometry width="50" height="50" relative="1" as="geometry">
            <mxPoint x="380" y="500" as="sourcePoint" />
            <mxPoint x="430" y="450" as="targetPoint" />
          </mxGeometry>
        </mxCell>
        <mxCell id="-GDkolLcmKoP9i0T9sj2-15" value="" style="endArrow=classic;html=1;rounded=0;entryX=0;entryY=0.5;entryDx=0;entryDy=0;exitX=0.97;exitY=0.3;exitDx=0;exitDy=0;exitPerimeter=0;" parent="1" source="-GDkolLcmKoP9i0T9sj2-4" target="-GDkolLcmKoP9i0T9sj2-9" edge="1">
          <mxGeometry width="50" height="50" relative="1" as="geometry">
            <mxPoint x="380" y="500" as="sourcePoint" />
            <mxPoint x="430" y="450" as="targetPoint" />
          </mxGeometry>
        </mxCell>
        <mxCell id="-GDkolLcmKoP9i0T9sj2-16" value="" style="endArrow=classic;html=1;rounded=0;entryX=0;entryY=0.5;entryDx=0;entryDy=0;exitX=1;exitY=0.5;exitDx=0;exitDy=0;" parent="1" source="-GDkolLcmKoP9i0T9sj2-4" target="-GDkolLcmKoP9i0T9sj2-8" edge="1">
          <mxGeometry width="50" height="50" relative="1" as="geometry">
            <mxPoint x="380" y="500" as="sourcePoint" />
            <mxPoint x="430" y="450" as="targetPoint" />
          </mxGeometry>
        </mxCell>
        <mxCell id="-GDkolLcmKoP9i0T9sj2-17" value="" style="endArrow=classic;html=1;rounded=0;entryX=0;entryY=0.5;entryDx=0;entryDy=0;exitX=0.963;exitY=0.693;exitDx=0;exitDy=0;exitPerimeter=0;" parent="1" source="-GDkolLcmKoP9i0T9sj2-4" target="-GDkolLcmKoP9i0T9sj2-7" edge="1">
          <mxGeometry width="50" height="50" relative="1" as="geometry">
            <mxPoint x="380" y="500" as="sourcePoint" />
            <mxPoint x="430" y="450" as="targetPoint" />
          </mxGeometry>
        </mxCell>
        <mxCell id="-GDkolLcmKoP9i0T9sj2-18" value="" style="endArrow=classic;html=1;rounded=0;entryX=0;entryY=0.5;entryDx=0;entryDy=0;exitX=1;exitY=1;exitDx=0;exitDy=0;" parent="1" source="-GDkolLcmKoP9i0T9sj2-4" target="-GDkolLcmKoP9i0T9sj2-6" edge="1">
          <mxGeometry width="50" height="50" relative="1" as="geometry">
            <mxPoint x="380" y="500" as="sourcePoint" />
            <mxPoint x="430" y="450" as="targetPoint" />
          </mxGeometry>
        </mxCell>
      </root>
    </mxGraphModel>
  </diagram>
</mxfile>
